<mxfile host="65bd71144e">
    <diagram id="eoP0BkNaZgy7leDRKoTp" name="Page-1">
        <mxGraphModel dx="752" dy="416" grid="1" gridSize="10" guides="1" tooltips="1" connect="1" arrows="1" fold="1" page="1" pageScale="1" pageWidth="850" pageHeight="1100" math="0" shadow="0">
            <root>
                <mxCell id="0"/>
                <mxCell id="1" parent="0"/>
                <mxCell id="2" value="Interface" style="text;html=1;strokeColor=none;fillColor=none;align=center;verticalAlign=middle;whiteSpace=wrap;rounded=0;fontSize=30;" vertex="1" parent="1">
                    <mxGeometry x="335" width="180" height="60" as="geometry"/>
                </mxCell>
                <mxCell id="3" value="" style="rounded=0;whiteSpace=wrap;html=1;fontSize=30;" vertex="1" parent="1">
                    <mxGeometry x="80" y="80" width="680" height="280" as="geometry"/>
                </mxCell>
                <mxCell id="4" value="Bus - Name" style="text;html=1;strokeColor=none;fillColor=none;align=center;verticalAlign=middle;whiteSpace=wrap;rounded=0;fontSize=20;" vertex="1" parent="1">
                    <mxGeometry x="360" y="90" width="130" height="40" as="geometry"/>
                </mxCell>
                <mxCell id="7" value="" style="swimlane;startSize=0;fontSize=15;" vertex="1" parent="1">
                    <mxGeometry x="100" y="140" width="250" height="200" as="geometry"/>
                </mxCell>
                <mxCell id="6" value="Bus General Info" style="text;html=1;strokeColor=none;fillColor=none;align=center;verticalAlign=middle;whiteSpace=wrap;rounded=0;fontSize=15;" vertex="1" parent="7">
                    <mxGeometry x="45" width="160" height="30" as="geometry"/>
                </mxCell>
                <mxCell id="8" value="" style="swimlane;startSize=0;fontSize=15;" vertex="1" parent="1">
                    <mxGeometry x="370" y="140" width="360" height="200" as="geometry"/>
                </mxCell>
                <mxCell id="9" value="Queues List" style="text;html=1;strokeColor=none;fillColor=none;align=center;verticalAlign=middle;whiteSpace=wrap;rounded=0;fontSize=15;" vertex="1" parent="8">
                    <mxGeometry x="100" width="160" height="30" as="geometry"/>
                </mxCell>
                <mxCell id="10" value="Queue Name - General Info - Expend" style="rounded=0;whiteSpace=wrap;html=1;fontSize=15;" vertex="1" parent="8">
                    <mxGeometry y="40" width="360" height="30" as="geometry"/>
                </mxCell>
                <mxCell id="11" value="Queue Name - General Info - Expend" style="rounded=0;whiteSpace=wrap;html=1;fontSize=15;" vertex="1" parent="1">
                    <mxGeometry x="370" y="220" width="360" height="30" as="geometry"/>
                </mxCell>
                <mxCell id="12" value="Queue Name - General Info - Expend" style="rounded=0;whiteSpace=wrap;html=1;fontSize=15;" vertex="1" parent="1">
                    <mxGeometry x="370" y="260" width="360" height="30" as="geometry"/>
                </mxCell>
                <mxCell id="13" value="Queue Name - General Info - Expend" style="rounded=0;whiteSpace=wrap;html=1;fontSize=15;" vertex="1" parent="1">
                    <mxGeometry x="370" y="300" width="360" height="30" as="geometry"/>
                </mxCell>
                <mxCell id="14" value="Address -&amp;nbsp;" style="text;html=1;strokeColor=none;fillColor=none;align=center;verticalAlign=middle;whiteSpace=wrap;rounded=0;fontSize=15;" vertex="1" parent="1">
                    <mxGeometry x="100" y="180" width="100" height="30" as="geometry"/>
                </mxCell>
                <mxCell id="15" value="Port -&amp;nbsp;" style="text;html=1;strokeColor=none;fillColor=none;align=center;verticalAlign=middle;whiteSpace=wrap;rounded=0;fontSize=15;" vertex="1" parent="1">
                    <mxGeometry x="100" y="210" width="70" height="30" as="geometry"/>
                </mxCell>
                <mxCell id="16" value="Status -&amp;nbsp;" style="text;html=1;strokeColor=none;fillColor=none;align=center;verticalAlign=middle;whiteSpace=wrap;rounded=0;fontSize=15;" vertex="1" parent="1">
                    <mxGeometry x="100" y="240" width="80" height="30" as="geometry"/>
                </mxCell>
                <mxCell id="17" value="Status -&amp;nbsp;" style="text;html=1;strokeColor=none;fillColor=none;align=center;verticalAlign=middle;whiteSpace=wrap;rounded=0;fontSize=15;" vertex="1" parent="1">
                    <mxGeometry x="100" y="270" width="80" height="30" as="geometry"/>
                </mxCell>
            </root>
        </mxGraphModel>
    </diagram>
</mxfile>